<?xml version="1.0" encoding="UTF-8" standalone="no"?>
<!-- Created with Inkscape (http://www.inkscape.org/) -->

<svg
   xmlns:dc="http://purl.org/dc/elements/1.1/"
   xmlns:cc="http://creativecommons.org/ns#"
   xmlns:rdf="http://www.w3.org/1999/02/22-rdf-syntax-ns#"
   xmlns:svg="http://www.w3.org/2000/svg"
   xmlns="http://www.w3.org/2000/svg"
   xmlns:xlink="http://www.w3.org/1999/xlink"
   xmlns:sodipodi="http://sodipodi.sourceforge.net/DTD/sodipodi-0.dtd"
   xmlns:inkscape="http://www.inkscape.org/namespaces/inkscape"
   sodipodi:docname="locator_via_sms.svg"
   viewBox="0 0 90 90"
   height="90"
   width="90"
   xml:space="preserve"
   inkscape:version="0.91pre3 r13670"
   version="1.1"
   id="svg4170"><sodipodi:namedview
     inkscape:current-layer="layer3"
     inkscape:window-maximized="1"
     inkscape:window-y="1072"
     inkscape:window-x="1912"
     inkscape:cy="12.29753"
     inkscape:cx="69.733248"
     inkscape:zoom="5.2444444"
     showgrid="false"
     id="namedview4172"
     inkscape:window-height="1017"
     inkscape:window-width="1920"
     inkscape:pageshadow="2"
     inkscape:pageopacity="0"
     guidetolerance="10"
     gridtolerance="10"
     objecttolerance="10"
     borderopacity="1"
     bordercolor="#666666"
     pagecolor="#ffffff" /><metadata
     id="metadata4176"><rdf:RDF><cc:Work
         rdf:about=""><dc:format>image/svg+xml</dc:format><dc:type
           rdf:resource="http://purl.org/dc/dcmitype/StillImage" /><dc:title></dc:title></cc:Work></rdf:RDF></metadata><defs
     id="defs4174"><linearGradient
       inkscape:collect="always"
       id="linearGradient10465"><stop
         style="stop-color:#000000;stop-opacity:1;"
         offset="0"
         id="stop10467" /><stop
         style="stop-color:#000000;stop-opacity:0;"
         offset="1"
         id="stop10469" /></linearGradient><clipPath
       id="clipPath4184"
       clipPathUnits="userSpaceOnUse"><path
         inkscape:connector-curvature="0"
         id="path4186"
         d="M 0,72 72,72 72,0 0,0 0,72 Z" /></clipPath><clipPath
       id="clipPath4196"
       clipPathUnits="userSpaceOnUse"><path
         inkscape:connector-curvature="0"
         id="path4198"
         d="M 0,72 72,72 72,0 0,0 0,72 Z" /></clipPath><clipPath
       id="clipPath4208"
       clipPathUnits="userSpaceOnUse"><path
         inkscape:connector-curvature="0"
         id="path4210"
         d="M 0,72 72,72 72,0 0,0 0,72 Z" /></clipPath><clipPath
       id="clipPath4220"
       clipPathUnits="userSpaceOnUse"><path
         inkscape:connector-curvature="0"
         id="path4222"
         d="M 0,72 72,72 72,0 0,0 0,72 Z" /></clipPath><clipPath
       id="clipPath4184-8"
       clipPathUnits="userSpaceOnUse"><path
         inkscape:connector-curvature="0"
         id="path4186-8"
         d="M 0,72 72,72 72,0 0,0 0,72 Z" /></clipPath><linearGradient
       inkscape:collect="always"
       xlink:href="#linearGradient10465"
       id="linearGradient10471"
       x1="12.271448"
       y1="15.102817"
       x2="47.211182"
       y2="45.574326"
       gradientUnits="userSpaceOnUse" /><mask
       maskUnits="userSpaceOnUse"
       id="mask10487"><g
         transform="matrix(-1.25,0,0,-1.1458333,83.5,90.75)"
         id="g10489"
         style="display:inline;fill:#f1c40f;fill-opacity:1"><g
           id="g10491"
           clip-path="url(#clipPath4184-8)"
           style="fill:#f1c40f;fill-opacity:1"><g
             id="g10493"
             transform="translate(60,12)"
             style="fill:#f1c40f;fill-opacity:1"><path
               d="m -45.2,10.472728 -10.4,-8.7272731 0,8.7272731 0,34.909091 c 0,3.314 0.686,4.363635 4,4.363635 l 38.4,0 c 3.314,0 4,-1.049635 4,-4.363635 l 0,-30.545455 c 0,-3.314 -0.686,-4.363636 -4,-4.363636"
               style="fill:#f1c40f;fill-opacity:1;fill-rule:nonzero;stroke:none"
               id="path10495"
               inkscape:connector-curvature="0"
               sodipodi:nodetypes="cccsssssc" /></g></g></g></mask><mask
       maskUnits="userSpaceOnUse"
       id="mask10497"><g
         transform="matrix(-1.25,0,0,-1.1458333,83.5,90.75)"
         id="g10499"
         style="display:inline;fill:#f1c40f;fill-opacity:1"><g
           id="g10501"
           clip-path="url(#clipPath4184-8)"
           style="fill:#f1c40f;fill-opacity:1"><g
             id="g10503"
             transform="translate(60,12)"
             style="fill:#f1c40f;fill-opacity:1"><path
               d="m -45.2,10.472728 -10.4,-8.7272731 0,8.7272731 0,34.909091 c 0,3.314 0.686,4.363635 4,4.363635 l 38.4,0 c 3.314,0 4,-1.049635 4,-4.363635 l 0,-30.545455 c 0,-3.314 -0.686,-4.363636 -4,-4.363636"
               style="fill:#f1c40f;fill-opacity:1;fill-rule:nonzero;stroke:none"
               id="path10505"
               inkscape:connector-curvature="0"
               sodipodi:nodetypes="cccsssssc" /></g></g></g></mask></defs><g
     sodipodi:insensitive="true"
     style="display:none"
     transform="matrix(1.25,0,0,-1.25,0,90)"
     inkscape:label="ic_action"
     inkscape:groupmode="layer"
     id="g4178"><g
       id="g4180"><g
         clip-path="url(#clipPath4184)"
         id="g4182"><g
           transform="translate(60,12)"
           id="g4188"><path
             inkscape:connector-curvature="0"
             id="path4190"
             style="fill:#afbfff;fill-opacity:1;fill-rule:nonzero;stroke:none"
             d="m 0,0 -48,0 c -3.314,0 -6,2.686 -6,6 l 0,36 c 0,3.314 2.686,6 6,6 l 48,0 c 3.314,0 6,-2.686 6,-6 L 6,6 C 6,2.686 3.314,0 0,0" /></g></g></g><g
       id="g4192"><g
         clip-path="url(#clipPath4196)"
         id="g4194"><g
           transform="translate(12,12)"
           id="g4200"><path
             inkscape:connector-curvature="0"
             id="path4202"
             style="fill:#91a7ff;fill-opacity:1;fill-rule:nonzero;stroke:none"
             d="m 0,0 0,48 c 0,3.314 2.686,6 6,6 l 36,0 c 3.314,0 6,-2.686 6,-6 L 48,0 c 0,-3.314 -2.686,-6 -6,-6 L 6,-6 C 2.686,-6 0,-3.314 0,0" /></g></g></g><g
       id="g4204"><g
         clip-path="url(#clipPath4208)"
         id="g4206"><g
           transform="translate(66,36)"
           id="g4212"><path
             inkscape:connector-curvature="0"
             id="path4214"
             style="fill:#738ffe;fill-opacity:1;fill-rule:nonzero;stroke:none"
             d="m 0,0 c 0,-16.569 -13.431,-30 -30,-30 -16.569,0 -30,13.431 -30,30 0,16.569 13.431,30 30,30 C -13.431,30 0,16.569 0,0" /></g></g></g><g
       id="g4216"><g
         clip-path="url(#clipPath4220)"
         id="g4218"><g
           transform="translate(57,9)"
           id="g4224"><path
             inkscape:connector-curvature="0"
             id="path4226"
             style="fill:#5677fc;fill-opacity:1;fill-rule:nonzero;stroke:none"
             d="m 0,0 -42,0 c -3.314,0 -6,2.686 -6,6 l 0,42 c 0,3.314 2.686,6 6,6 l 42,0 c 3.314,0 6,-2.686 6,-6 L 6,6 C 6,2.686 3.314,0 0,0" /></g></g></g></g><g
     inkscape:label="bg"
     id="layer4"
     inkscape:groupmode="layer"
     sodipodi:insensitive="true"><g
       style="fill:#303f9f;fill-opacity:0"
       id="g4826"
       transform="matrix(1.2592593,0,0,-1.2592593,-0.33333333,90.333333)"><g
         style="fill:#303f9f;fill-opacity:0"
         id="g4828"
         clip-path="url(#clipPath4220)"><g
           style="fill:#303f9f;fill-opacity:0"
           id="g4830"
           transform="translate(57,9)"><path
             d="m 0,0 -42,0 c -3.314,0 -6,2.686 -6,6 l 0,42 c 0,3.314 2.686,6 6,6 l 42,0 c 3.314,0 6,-2.686 6,-6 L 6,6 C 6,2.686 3.314,0 0,0"
             style="fill:#303f9f;fill-opacity:0;fill-rule:nonzero;stroke:none"
             id="path4832"
             inkscape:connector-curvature="0" /></g></g></g></g><g
     style="display:inline"
     inkscape:label="in"
     id="layer1"
     inkscape:groupmode="layer"
     sodipodi:insensitive="true"><g
       style="display:inline;fill:#f1c40f;fill-opacity:1"
       id="g4812"
       transform="matrix(-1.25,0,0,-1.1458333,83.5,90.75)"><g
         style="fill:#f1c40f;fill-opacity:1"
         clip-path="url(#clipPath4184-8)"
         id="g4814"><g
           style="fill:#f1c40f;fill-opacity:1"
           transform="translate(60,12)"
           id="g4816"><path
             sodipodi:nodetypes="cccsssssc"
             inkscape:connector-curvature="0"
             id="path4818"
             style="fill:#f1c40f;fill-opacity:1;fill-rule:nonzero;stroke:none"
             d="m -45.2,10.472728 -10.4,-8.7272731 0,8.7272731 0,34.909091 c 0,3.314 0.686,4.363635 4,4.363635 l 38.4,0 c 3.314,0 4,-1.049635 4,-4.363635 l 0,-30.545455 c 0,-3.314 -0.686,-4.363636 -4,-4.363636" /></g></g></g></g><g
     inkscape:label="out_shadow"
     id="layer5"
     inkscape:groupmode="layer"
     sodipodi:insensitive="true"><path
       style="fill:url(#linearGradient10471);fill-opacity:1;fill-rule:nonzero;stroke:none"
       d="m 16.458984,15.001953 c -5.033677,-0.09059 -4.822394,5.940996 -4.384368,9.525681 -0.09812,15.159141 -0.06918,30.341158 -0.01993,45.509475 3.604653,3.464859 7.053493,6.919589 10.545786,10.414998 2.622588,2.420436 5.048912,5.091815 7.682291,7.469057 2.452741,2.686193 5.06174,5.063548 7.633469,7.660715 1.686251,1.638637 3.908228,5.393141 6.121305,2.338824 3.554544,-2.734636 7.109089,-5.469271 10.663633,-8.203906 13.961502,-0.05586 27.941074,0.109775 41.891276,-0.07924 C 102.0447,87.373145 98.659588,79.936551 99.633684,75.4059 99.530725,66.165183 99.845119,56.85787 99.457584,47.658659 97.81861,44.089392 94.191194,42.022753 91.734017,39.058716 83.940267,31.291365 76.222799,23.447425 68.375,15.734375 64.233751,14.230311 59.762204,15.547219 55.477315,15.074025 42.471238,15.033108 29.464474,15.18289 16.458984,15.001953 Z"
       id="path9607"
       inkscape:connector-curvature="0"
       mask="url(#mask10497)" /><path
       style="fill:#000000;fill-opacity:0.14534882;fill-rule:nonzero;stroke:none"
       d="M 25.498487,60.514462 C 21.17196,63.842975 16.845434,67.171487 12.518907,70.5 c 0.01622,-16.975541 -0.03258,-33.951998 0.02457,-50.926961 -0.450342,-2.938313 2.682708,-4.447338 5.467701,-3.993492 16.053972,0.0096 32.108516,-0.01917 48.16213,0.01442 3.375155,-0.416828 4.659702,2.756602 4.254492,5.28402 -0.02914,11.982011 0.05878,23.966414 -0.04487,35.946904 0.184939,2.695272 -2.284909,3.953866 -4.94728,3.689574"
       id="path4845"
       inkscape:connector-curvature="0"
       mask="url(#mask10487)" /></g><g
     style="display:inline"
     inkscape:label="out"
     id="layer2"
     inkscape:groupmode="layer"
     sodipodi:insensitive="true"><g
       transform="matrix(1.25,0,0,-1.1458333,4.5,83.75)"
       id="g4799"
       style="fill:#3f51b5;fill-opacity:1"><g
         id="g4801"
         clip-path="url(#clipPath4184-8)"
         style="fill:#3f51b5;fill-opacity:1"><g
           id="g4803"
           transform="translate(60,12)"
           style="fill:#3f51b5;fill-opacity:1"><path
             d="M -43.6,8.7272733 -54,3.4909093e-7 -54,8.7272733 -54,43.636365 C -54,46.950365 -53.314,48 -50,48 l 38.4,0 c 3.314,0 4,-1.049635 4,-4.363635 l 0,-30.545455 c 0,-3.3140002 -0.686,-4.3636367 -4,-4.3636367"
             style="fill:#3f51b5;fill-opacity:1;fill-rule:nonzero;stroke:none"
             id="path4805"
             inkscape:connector-curvature="0"
             sodipodi:nodetypes="cccsssssc" /></g></g></g></g><g
     inkscape:label="data"
     id="layer3"
     inkscape:groupmode="layer"><g
       id="g10515"
       transform="translate(0,-5)"><path
         sodipodi:nodetypes="caaac"
         inkscape:connector-curvature="0"
         id="path10507"
         d="m 31,50 c 0,0 -8.730998,-13.266901 -6.6911,-20 0.828136,-2.733428 3.950194,-5 6.6911,-5 2.740905,0 5.862964,2.266572 6.691099,5 C 39.730997,36.733099 31,50 31,50 Z"
         style="fill:#ffffff;fill-opacity:1;fill-rule:evenodd;stroke:none;stroke-width:1px;stroke-linecap:butt;stroke-linejoin:miter;stroke-opacity:1" /><path
         style="fill:#ffffff;fill-opacity:1;fill-rule:evenodd;stroke:none;stroke-width:1px;stroke-linecap:butt;stroke-linejoin:miter;stroke-opacity:1"
         d="m 49,50 c 0,0 -8.730998,-13.266901 -6.6911,-20 0.828136,-2.733428 3.950194,-5 6.6911,-5 2.740905,0 5.862964,2.266572 6.691099,5 C 57.730997,36.733099 49,50 49,50 Z"
         id="path10509"
         inkscape:connector-curvature="0"
         sodipodi:nodetypes="caaac" /><path
         d="m 35,32 a 4,4 0 0 1 -3.98232,3.999961 4,4 0 0 1 -4.017524,-3.964601 4,4 0 0 1 3.946805,-4.035008 4,4 0 0 1 4.052414,3.928931"
         sodipodi:open="true"
         sodipodi:end="6.2655051"
         sodipodi:start="0"
         sodipodi:ry="4"
         sodipodi:rx="4"
         sodipodi:cy="32"
         sodipodi:cx="31"
         sodipodi:type="arc"
         id="path10511"
         style="fill:#000000;fill-opacity:1;fill-rule:evenodd;stroke:none;stroke-width:1;stroke-linecap:round;stroke-linejoin:round;stroke-miterlimit:4;stroke-dasharray:none;stroke-opacity:1" /><path
         style="fill:#000000;fill-opacity:1;fill-rule:evenodd;stroke:none;stroke-width:1;stroke-linecap:round;stroke-linejoin:round;stroke-miterlimit:4;stroke-dasharray:none;stroke-opacity:1"
         id="path10513"
         sodipodi:type="arc"
         sodipodi:cx="49"
         sodipodi:cy="32"
         sodipodi:rx="4"
         sodipodi:ry="4"
         sodipodi:start="0"
         sodipodi:end="6.2655051"
         sodipodi:open="true"
         d="m 53,32 a 4,4 0 0 1 -3.98232,3.999961 4,4 0 0 1 -4.017524,-3.964601 4,4 0 0 1 3.946805,-4.035008 4,4 0 0 1 4.052414,3.928931" /></g><path
       sodipodi:nodetypes="cac"
       inkscape:connector-curvature="0"
       id="path10523"
       d="m 24,50.4 c 0,0 10.871186,3.680328 16.5,3.6 4.979564,-0.07106 14.5,-3.6 14.5,-3.6"
       style="fill:none;fill-rule:evenodd;stroke:#ffffff;stroke-width:1.5;stroke-linecap:butt;stroke-linejoin:miter;stroke-miterlimit:1;stroke-dasharray:none;stroke-opacity:1" /><path
       style="fill:none;fill-rule:evenodd;stroke:#000000;stroke-width:2;stroke-linecap:butt;stroke-linejoin:miter;stroke-opacity:1;stroke-miterlimit:4;stroke-dasharray:none"
       d="m 23,50 c 0,0 11.434105,5.102349 17.5,5 5.42806,-0.09159 15.5,-5 15.5,-5"
       id="path10521"
       inkscape:connector-curvature="0"
       sodipodi:nodetypes="cac" /></g></svg>